<svg width="59" height="59" viewBox="0 0 59 59" fill="none" xmlns="http://www.w3.org/2000/svg">
<g filter="url(#filter0_d_19_254)">
<path d="M8.63749 4.6355L8.6353 4.63769C7.26808 5.99569 6.42563 7.36322 5.8022 8.97862L5.80184 8.97956C5.19294 10.5479 4.77941 12.3363 4.64768 15.0146C4.52551 17.7168 4.5 18.5706 4.5 25.5C4.5 32.4274 4.53344 33.2846 4.64772 35.986C4.77947 38.6558 5.19295 40.4519 5.80161 42.0199C6.43542 43.638 7.27087 45.0055 8.6355 46.3625L8.63769 46.3647C9.9954 47.7316 11.3626 48.574 12.9776 49.1974L8.63749 4.6355ZM8.63749 4.6355C9.99446 3.27086 11.362 2.4354 12.9802 1.80159C14.5483 1.19289 16.3364 0.779462 19.0139 0.647718C21.7154 0.533438 22.5726 0.5 29.5 0.5C36.4294 0.5 37.2832 0.525511 39.9853 0.647681C42.6558 0.779409 44.4522 1.19299 46.0204 1.80184L46.0221 1.80248C47.6443 2.42557 49.0038 3.26761 50.3623 4.6353L50.3645 4.63749M8.63749 4.6355L50.3645 4.63749M50.3625 46.3645L50.3647 46.3623C51.7323 45.0039 52.5743 43.6445 53.1974 42.0224L50.3625 46.3645ZM50.3625 46.3645C49.0059 47.7288 47.6386 48.5642 46.021 49.198C44.4505 49.7982 42.6534 50.2206 39.9861 50.3523C37.2846 50.4666 36.4275 50.5 29.5 50.5C22.5708 50.5 21.7168 50.4745 19.0149 50.3523M50.3625 46.3645L19.0149 50.3523M50.3645 4.63749C51.7289 5.99418 52.5643 7.36148 53.198 8.97917C53.7979 10.5393 54.2206 12.3457 54.3523 15.0139C54.4666 17.7154 54.5 18.5725 54.5 25.5C54.5 32.4292 54.4745 33.2832 54.3523 35.9851M50.3645 4.63749L54.3523 35.9851M44.6882 45.8483C45.9368 45.3605 46.8492 44.7754 47.7963 43.8384L47.7964 43.8384L47.8014 43.8333C48.7389 42.8789 49.3131 41.9859 49.8195 40.7308L49.8195 40.7308L49.8218 40.725C50.1901 39.7782 50.6157 38.3744 50.7525 35.8398L50.7527 35.8359C50.8775 33.1342 50.911 32.311 50.911 25.5016C50.911 18.692 50.8775 17.8696 50.7623 15.169L50.7622 15.1669C50.6434 12.6318 50.2178 11.2267 49.8476 10.2788C49.3592 9.01854 48.7731 8.11286 47.8349 7.17466L47.833 7.1728C46.8799 6.22978 45.9853 5.64335 44.7235 5.15432C43.7756 4.78396 42.3704 4.35825 39.8347 4.23936L39.8326 4.23927C37.1529 4.12496 36.324 4.0911 29.6571 4.09058L29.5519 4.01725H29.3948C22.7429 4.01725 21.815 4.05066 19.256 4.14279C19.1915 4.14511 19.1259 4.14747 19.0592 4.14987L19.0592 4.14982L19.0522 4.15017C16.5098 4.27705 15.1216 4.70209 14.1751 5.06997C12.89 5.54736 11.9991 6.16373 11.0679 7.09497L11.0676 7.09529C10.13 8.03449 9.51437 8.92212 9.04632 10.2093C8.6679 11.1541 8.25136 12.5754 8.11678 15.1096L8.11669 15.1096L8.11636 15.1194C8.11088 15.2826 8.10558 15.439 8.10044 15.5903C8.02026 17.9543 7.98219 19.077 7.98219 25.4633C7.98219 31.8649 8.02041 32.9785 8.10091 35.3238C8.1059 35.4691 8.11105 35.6193 8.11637 35.7756L8.11627 35.7756L8.11678 35.7852C8.2514 38.3202 8.66818 39.7451 9.04705 40.6873C9.51371 41.9444 10.1254 42.8574 11.0679 43.7998C12.0077 44.7397 12.8963 45.3151 14.1675 45.8219L14.1714 45.8234C15.1189 46.192 16.5403 46.6174 19.0741 46.7541L19.0781 46.7543C21.7973 46.8791 22.6012 46.9126 29.4299 46.9126C36.2586 46.9126 37.0634 46.8791 39.7783 46.7639L39.7804 46.7638C42.3236 46.6451 43.7488 46.2199 44.6882 45.8483ZM44.6882 45.8483C44.6879 45.8484 44.6876 45.8485 44.6874 45.8487L44.5054 45.3829M44.6882 45.8483C44.6886 45.8482 44.689 45.848 44.6894 45.8479L44.5054 45.3829M44.5054 45.3829C43.6192 45.7336 42.2484 46.148 39.7571 46.2644L47.4447 43.4829C46.5473 44.3708 45.6929 44.9191 44.5054 45.3829ZM19.0149 50.3523C16.3463 50.2207 14.549 49.7997 12.9786 49.1978L19.0149 50.3523ZM54.3523 35.9851C54.2207 38.6541 53.7995 40.4515 53.1975 42.0221L54.3523 35.9851ZM16.9089 25.5032C16.9089 18.549 22.5382 12.9121 29.5 12.9121C36.4542 12.9121 42.0911 18.5414 42.0911 25.5032C42.0911 32.4574 36.4618 38.0943 29.5 38.0943C22.5458 38.0943 16.9089 32.465 16.9089 25.5032ZM20.4995 25.5032C20.4995 30.4783 24.5249 34.5037 29.5 34.5037C34.4751 34.5037 38.5005 30.4783 38.5005 25.5032C38.5005 20.5281 34.4751 16.5027 29.5 16.5027C24.5249 16.5027 20.4995 20.5281 20.4995 25.5032ZM45.6791 11.8893C45.6791 13.306 44.5257 14.4512 43.1139 14.4512C41.6959 14.4512 40.5519 13.3061 40.5519 11.8893C40.5519 10.482 41.7039 9.33367 43.1139 9.33367C44.5246 9.33367 45.6791 10.4826 45.6791 11.8893Z" fill="#154853" stroke="black"/>
</g>
<defs>
<filter id="filter0_d_19_254" x="0" y="0" width="59" height="59" filterUnits="userSpaceOnUse" color-interpolation-filters="sRGB">
<feFlood flood-opacity="0" result="BackgroundImageFix"/>
<feColorMatrix in="SourceAlpha" type="matrix" values="0 0 0 0 0 0 0 0 0 0 0 0 0 0 0 0 0 0 127 0" result="hardAlpha"/>
<feOffset dy="4"/>
<feGaussianBlur stdDeviation="2"/>
<feComposite in2="hardAlpha" operator="out"/>
<feColorMatrix type="matrix" values="0 0 0 0 0 0 0 0 0 0 0 0 0 0 0 0 0 0 0.25 0"/>
<feBlend mode="normal" in2="BackgroundImageFix" result="effect1_dropShadow_19_254"/>
<feBlend mode="normal" in="SourceGraphic" in2="effect1_dropShadow_19_254" result="shape"/>
</filter>
</defs>
</svg>
