<svg width="59" height="50" viewBox="0 0 59 50" fill="none" xmlns="http://www.w3.org/2000/svg">
<g filter="url(#filter0_d_19_258)">
<path d="M19.4661 31.9313C15.3852 31.8505 11.9172 29.337 10.4321 25.7862C10.8211 25.829 11.2157 25.8518 11.6213 25.8518C12.6131 25.8518 13.5869 25.7114 14.4971 25.4701L14.4676 24.4966C10.1365 23.6246 6.82152 19.9386 6.50981 15.4251C7.79355 16.0105 9.21073 16.3607 10.7016 16.4038L12.4349 16.4539L10.9944 15.4887C8.32948 13.7029 6.56869 10.6679 6.56869 7.20694C6.56869 5.61569 6.9305 4.13873 7.57799 2.82814C12.8087 8.92219 20.4378 12.9313 29.0129 13.3323L29.6712 13.3631L29.5235 12.7208C29.3576 11.9993 29.2621 11.2401 29.2621 10.4502C29.2621 4.95733 33.7203 0.5 39.2219 0.5C42.0913 0.5 44.6765 1.71796 46.4858 3.65473L46.6766 3.85896L46.9505 3.80344C48.9159 3.4051 50.7881 2.75928 52.5274 1.89033C51.6778 3.66458 50.3225 5.1486 48.6451 6.15503L48.9625 7.08015C50.5977 6.8819 52.1696 6.50334 53.6673 5.96786C52.4692 7.49878 51.0579 8.86032 49.4808 9.98404L49.2514 10.1475L49.2723 10.4284C49.3041 10.8562 49.3044 11.2856 49.3044 11.7284C49.3044 25.3088 38.9617 40.9534 20.0634 40.9534C14.9812 40.9534 10.2283 39.6571 6.06286 37.3917C6.20568 37.3942 6.3484 37.3953 6.49103 37.3953C11.4799 37.3953 16.1109 35.6887 19.7646 32.8247L20.869 31.9591L19.4661 31.9313Z" fill="#154853" stroke="black"/>
</g>
<defs>
<filter id="filter0_d_19_258" x="0" y="0" width="59" height="49.4536" filterUnits="userSpaceOnUse" color-interpolation-filters="sRGB">
<feFlood flood-opacity="0" result="BackgroundImageFix"/>
<feColorMatrix in="SourceAlpha" type="matrix" values="0 0 0 0 0 0 0 0 0 0 0 0 0 0 0 0 0 0 127 0" result="hardAlpha"/>
<feOffset dy="4"/>
<feGaussianBlur stdDeviation="2"/>
<feComposite in2="hardAlpha" operator="out"/>
<feColorMatrix type="matrix" values="0 0 0 0 0 0 0 0 0 0 0 0 0 0 0 0 0 0 0.25 0"/>
<feBlend mode="normal" in2="BackgroundImageFix" result="effect1_dropShadow_19_258"/>
<feBlend mode="normal" in="SourceGraphic" in2="effect1_dropShadow_19_258" result="shape"/>
</filter>
</defs>
</svg>
