<svg width="56" height="59" viewBox="0 0 56 59" fill="none" xmlns="http://www.w3.org/2000/svg">
<g filter="url(#filter0_d_19_252)">
<path d="M44.89 43.9618H44.9424L44.9937 43.9509L45.0012 43.9493L45.3975 43.8653V43.4602V30.097C45.3975 26.8127 45.0677 23.7951 43.759 21.5915C42.4159 19.3302 40.0968 18.0092 36.3595 18.0092C33.4719 18.0092 31.3197 19.334 30.0315 20.9056V19.1228V18.6228H29.5315H22.7035H22.2035V19.1228V43.4602V43.9602H22.7035H29.812H30.312V43.4602V31.4166C30.312 29.8343 30.4568 28.3813 31.0005 27.3343C31.2662 26.8225 31.623 26.4166 32.1028 26.1349C32.5843 25.8522 33.222 25.6757 34.078 25.6757C34.9064 25.6757 35.4858 25.8796 35.9036 26.1886C36.3247 26.5 36.6254 26.9505 36.8373 27.5172C37.2708 28.6766 37.2905 30.1933 37.2905 31.6254V43.4618V43.9618H37.7905H44.89ZM18.2335 43.9618H18.7335V43.4618V19.1244V18.6244H18.2335H11.11H10.61V19.1244V43.4618V43.9618H11.11H18.2335ZM10.046 11.4045C10.046 14.0738 12.0759 16.2968 14.6725 16.2968C17.2601 16.2968 19.305 14.0753 19.305 11.4045C19.305 8.74057 17.2591 6.52344 14.6725 6.52344C12.085 6.52344 10.046 8.74154 10.046 11.4045ZM7.54 0.5H48.4465C50.1072 0.5 51.5 1.90435 51.5 3.67667V47.3233C51.5 49.0957 50.1072 50.5 48.4465 50.5H7.54C5.87901 50.5 4.5 49.0984 4.5 47.3233V3.67667C4.5 1.90155 5.87901 0.5 7.54 0.5Z" fill="#154853" stroke="black"/>
</g>
<defs>
<filter id="filter0_d_19_252" x="0" y="0" width="56" height="59" filterUnits="userSpaceOnUse" color-interpolation-filters="sRGB">
<feFlood flood-opacity="0" result="BackgroundImageFix"/>
<feColorMatrix in="SourceAlpha" type="matrix" values="0 0 0 0 0 0 0 0 0 0 0 0 0 0 0 0 0 0 127 0" result="hardAlpha"/>
<feOffset dy="4"/>
<feGaussianBlur stdDeviation="2"/>
<feComposite in2="hardAlpha" operator="out"/>
<feColorMatrix type="matrix" values="0 0 0 0 0 0 0 0 0 0 0 0 0 0 0 0 0 0 0.25 0"/>
<feBlend mode="normal" in2="BackgroundImageFix" result="effect1_dropShadow_19_252"/>
<feBlend mode="normal" in="SourceGraphic" in2="effect1_dropShadow_19_252" result="shape"/>
</filter>
</defs>
</svg>
